<svg width="153" height="32" viewBox="0 0 153 32" fill="none" xmlns="http://www.w3.org/2000/svg">
<g clip-path="url(#clip0_1111_11773)">
<path d="M0 4.242H5.69521L12.3906 21.1688H12.4906L19.1625 4.242H24.8754V27.7995H20.4686V11.8788H18.1976L23.128 4.88918L13.9909 27.7936H10.8903L1.74739 4.89506L6.67775 11.8846H4.38908V27.7995H0V4.242Z" fill="#F2F2F2"/>
<path d="M27.6172 4.242H32.5475V27.7995H27.6172V4.242ZM30.0824 24.1223H36.7895C38.1957 24.1223 39.2724 23.834 40.0196 23.2633C40.7727 22.6926 41.1433 21.863 41.1433 20.7746V20.7393C41.1433 20.0215 40.9727 19.4155 40.6315 18.9213C40.2902 18.4271 39.7783 18.0505 39.0959 17.8034C38.4134 17.5504 37.5779 17.4269 36.5718 17.4269H30.0824V14.0792H35.9894C37.3838 14.0792 38.4428 13.8027 39.1665 13.2437C39.8901 12.6848 40.2549 11.9023 40.2549 10.8786V10.8433C40.2549 9.90779 39.9313 9.18412 39.29 8.67226C38.6487 8.1604 37.7485 7.90741 36.5954 7.90741H30.0824V4.242H37.8662C39.3547 4.242 40.6432 4.48322 41.7199 4.95978C42.7966 5.43634 43.632 6.11883 44.2145 7.00723C44.8028 7.89564 45.097 8.9429 45.097 10.149V10.1843C45.097 11.0551 44.897 11.8552 44.5028 12.5907C44.1027 13.3261 43.5614 13.938 42.8789 14.4204C42.1906 14.9029 41.414 15.2088 40.5432 15.3265V15.4265C41.6434 15.4912 42.6142 15.7795 43.4673 16.2855C44.3145 16.7915 44.9852 17.4563 45.4677 18.2741C45.9501 19.0978 46.1913 20.0215 46.1913 21.057V21.0923C46.1913 22.4631 45.8619 23.6516 45.2029 24.6518C44.544 25.652 43.6085 26.4286 42.3965 26.9758C41.1845 27.5229 39.7313 27.7995 38.0486 27.7995H30.0824V24.1223Z" fill="#F2F2F2"/>
<path d="M91.1353 2.20041H95.9185V25.7579H91.1353V2.20041ZM95.3302 15.2559H96.0185L101.926 8.25451H107.327L99.2486 17.4622H98.1896L95.3302 20.6098V15.2559ZM96.7481 18.0329L99.7663 14.391L107.65 25.752H102.149L96.7481 18.0329Z" fill="#F2F2F2"/>
<path d="M109.639 5.27748C109.145 4.78326 108.897 4.19491 108.897 3.5242C108.897 2.83583 109.145 2.25336 109.639 1.77092C110.133 1.28847 110.739 1.04137 111.457 1.04137C112.175 1.04137 112.781 1.28259 113.269 1.77092C113.757 2.25336 114.004 2.84171 114.004 3.5242C114.004 4.2008 113.757 4.78326 113.269 5.27748C112.781 5.77169 112.175 6.01879 111.457 6.01879C110.739 6.01879 110.133 5.77169 109.639 5.27748ZM109.056 8.25452H113.84V25.752H109.056V8.25452Z" fill="#F2F2F2"/>
<path d="M117.022 8.25452H121.788V11.1257H121.888C122.347 10.1255 123.018 9.33708 123.912 8.7605C124.806 8.18392 125.907 7.89563 127.224 7.89563C129.148 7.89563 130.637 8.47221 131.69 9.63125C132.737 10.7903 133.267 12.3965 133.267 14.4557V25.752H128.501V15.4559C128.501 14.3145 128.23 13.4261 127.695 12.7966C127.154 12.167 126.354 11.8493 125.289 11.8493C124.583 11.8493 123.965 12.0141 123.447 12.3377C122.924 12.6671 122.518 13.1143 122.229 13.6909C121.941 14.2674 121.8 14.9382 121.8 15.6971V25.752H117.034V8.25452H117.022Z" fill="#F2F2F2"/>
<path d="M140.274 31.1648C139.08 30.7235 138.138 30.1293 137.432 29.3762C136.726 28.6231 136.303 27.7818 136.15 26.8463L136.114 26.6992H140.768L140.815 26.811C141.009 27.2346 141.421 27.6112 142.039 27.9407C142.657 28.2701 143.463 28.429 144.457 28.429C145.687 28.429 146.622 28.1348 147.264 27.5465C147.905 26.9581 148.228 26.1815 148.228 25.2107V22.5161H148.128C147.822 23.128 147.405 23.6516 146.881 24.0987C146.352 24.5459 145.74 24.893 145.034 25.1342C144.334 25.3813 143.563 25.499 142.722 25.499C141.262 25.499 140.003 25.1519 138.933 24.4518C137.868 23.7575 137.05 22.7573 136.473 21.4571C135.903 20.1568 135.614 18.6036 135.614 16.7973V16.7797C135.614 14.9205 135.903 13.3261 136.485 11.9964C137.067 10.6667 137.897 9.6489 138.968 8.94289C140.039 8.23687 141.309 7.88386 142.78 7.88386C143.61 7.88386 144.363 8.01918 145.051 8.28982C145.74 8.56046 146.34 8.94877 146.858 9.44886C147.375 9.94896 147.793 10.5432 148.105 11.2257H148.217V8.23687H152.982V25.246C152.982 26.5404 152.635 27.6818 151.947 28.6643C151.258 29.6469 150.27 30.4176 148.993 30.9765C147.717 31.5296 146.199 31.812 144.445 31.812C142.863 31.8238 141.468 31.6061 140.274 31.1648ZM146.422 21.3982C146.999 20.9864 147.446 20.398 147.77 19.6332C148.093 18.8683 148.252 17.9682 148.252 16.9209V16.9032C148.252 15.8677 148.093 14.9735 147.77 14.2204C147.446 13.4673 146.999 12.8789 146.416 12.4671C145.834 12.0552 145.157 11.8493 144.387 11.8493C143.604 11.8493 142.916 12.0552 142.327 12.4612C141.739 12.8672 141.286 13.4496 140.974 14.2086C140.656 14.9676 140.503 15.8677 140.503 16.9091V16.9268C140.503 17.974 140.662 18.8742 140.974 19.6391C141.292 20.398 141.739 20.9864 142.327 21.4041C142.916 21.8159 143.598 22.0219 144.387 22.0219C145.163 22.016 145.846 21.8101 146.422 21.3982Z" fill="#F2F2F2"/>
<path d="M75.5614 24.793C81.8002 24.793 86.8577 19.7355 86.8577 13.4967C86.8577 7.25793 81.8002 2.20041 75.5614 2.20041C69.3227 2.20041 64.2651 7.25793 64.2651 13.4967C64.2651 19.7355 69.3227 24.793 75.5614 24.793Z" stroke="#FCC434" stroke-width="4.39796" stroke-miterlimit="10"/>
<path d="M56.7053 25.1048C60.8774 25.1048 64.2597 21.7226 64.2597 17.5504C64.2597 13.3782 60.8774 9.99603 56.7053 9.99603C52.5331 9.99603 49.1509 13.3782 49.1509 17.5504C49.1509 21.7226 52.5331 25.1048 56.7053 25.1048Z" stroke="#FCC434" stroke-width="4.39796" stroke-miterlimit="10"/>
</g>
<defs>
<clipPath id="clip0_1111_11773">
<rect width="153" height="31.8238" fill="white"/>
</clipPath>
</defs>
</svg>
