<svg width="27" height="12" viewBox="0 0 27 12" fill="none" xmlns="http://www.w3.org/2000/svg">
<path d="M27.0001 1.58113C26.922 1.73672 26.7695 1.80138 26.6306 1.88198C26.4149 2.00708 26.1981 2.1304 25.9817 2.25455C25.9728 2.25972 25.9645 2.26605 25.9554 2.27227C25.9665 2.29654 25.9899 2.2977 26.0082 2.30476C26.1605 2.36363 26.314 2.41974 26.4658 2.48008C26.6123 2.53831 26.706 2.68842 26.694 2.83831C26.6807 3.00424 26.5664 3.14106 26.409 3.17745C26.333 3.19496 26.2586 3.18431 26.1865 3.1573C25.9645 3.07407 25.743 2.98937 25.5207 2.90698C25.4382 2.87639 25.4395 2.8785 25.4403 2.96479C25.4416 3.12798 25.446 3.29106 25.4322 3.45424C25.4161 3.64454 25.2567 3.78832 25.0565 3.78621C24.8688 3.78421 24.7123 3.63062 24.6981 3.44581C24.6851 3.27703 24.698 3.10899 24.6988 2.94074C24.6991 2.87544 24.6954 2.87281 24.6331 2.89612C24.4192 2.97597 24.2056 3.05656 23.9917 3.13642C23.9075 3.16785 23.8234 3.19549 23.7302 3.17682C23.5751 3.14559 23.4673 3.02555 23.441 2.84865C23.4201 2.70846 23.4961 2.56099 23.6293 2.49612C23.7637 2.43061 23.9083 2.39031 24.0476 2.33694C24.0963 2.31827 24.1448 2.29928 24.1989 2.27839C24.1749 2.25149 24.1491 2.24073 24.1254 2.22734C23.8761 2.08662 23.6264 1.94653 23.3777 1.80487C23.3367 1.78155 23.2985 1.75276 23.2606 1.72438C23.1128 1.61351 23.1079 1.38028 23.1852 1.26066C23.2875 1.10233 23.4917 1.03735 23.6509 1.11826C23.8686 1.22891 24.0763 1.35771 24.2891 1.47733C24.3163 1.49263 24.3435 1.50782 24.3708 1.52301C24.3879 1.50064 24.3723 1.48588 24.3671 1.471C24.2614 1.17132 24.1549 0.871947 24.0492 0.572367C24.0294 0.516038 24.0108 0.458864 24.0044 0.39937C23.9854 0.222997 24.0749 0.0780597 24.2406 0.0133967C24.2504 0.00959923 24.2597 0.00464138 24.2692 0.000210972C24.3359 0.000210972 24.4027 0.000210972 24.4695 0.000210972C24.5878 0.0421944 24.667 0.124052 24.7126 0.239664C24.7255 0.272259 24.7386 0.304855 24.7502 0.337977C24.8438 0.606439 24.9369 0.875006 25.0305 1.14347C25.0404 1.17205 25.0515 1.20011 25.0661 1.23925C25.0753 1.21678 25.0796 1.2075 25.083 1.1979C25.1866 0.90507 25.2945 0.613612 25.3918 0.318673C25.4411 0.168989 25.5203 0.0554856 25.6716 0C25.7349 0 25.7982 0 25.8614 0C25.9264 0.0308019 25.9938 0.0577009 26.0413 0.115613C26.1371 0.232491 26.1516 0.364349 26.1041 0.502535C25.9923 0.828065 25.8767 1.15222 25.763 1.47712C25.7576 1.49263 25.745 1.50792 25.7556 1.52891C25.7953 1.51815 25.8287 1.49526 25.8633 1.47554C26.0722 1.35613 26.2794 1.23376 26.4927 1.12195C26.5555 1.08904 26.6216 1.0787 26.6918 1.08956C26.843 1.11288 26.9421 1.20022 27.0001 1.33851C27.0001 1.41953 27.0001 1.50033 27.0001 1.58113ZM25.8851 2.27734C25.7693 2.23451 25.6697 2.19601 25.5688 2.16109C25.5269 2.14664 25.5145 2.12881 25.5311 2.08419C25.5848 1.93936 25.6347 1.79305 25.685 1.64695C25.6902 1.63197 25.7073 1.61256 25.6887 1.59959C25.6744 1.58957 25.6605 1.60866 25.6476 1.61636C25.5356 1.6825 25.424 1.74906 25.3069 1.80592C25.2679 1.82491 25.2468 1.81868 25.2335 1.7747C25.2136 1.70919 25.1886 1.64537 25.1655 1.58092C25.1345 1.49453 25.1031 1.40813 25.0719 1.32174C25.016 1.44632 24.973 1.57037 24.9273 1.69347C24.9105 1.73862 24.9117 1.80814 24.8694 1.82153C24.8294 1.83419 24.7829 1.78525 24.7401 1.76193C24.6433 1.70951 24.5474 1.65581 24.4417 1.59737C24.4485 1.61773 24.4515 1.62723 24.4547 1.63662C24.5074 1.78746 24.5589 1.93873 24.6134 2.08894C24.6273 2.12744 24.6196 2.14632 24.5809 2.15962C24.4895 2.19084 24.3989 2.22459 24.3085 2.25846C24.2948 2.26362 24.2735 2.26584 24.273 2.28451C24.2725 2.30012 24.2923 2.30287 24.304 2.30941C24.4219 2.37565 24.539 2.44358 24.6588 2.50603C24.7077 2.53145 24.7287 2.56268 24.724 2.61764C24.7197 2.66996 24.723 2.72291 24.7231 2.77565C24.7232 2.84021 24.7235 2.84063 24.7816 2.81985C24.8527 2.79443 24.9242 2.76985 24.9942 2.74158C25.0444 2.72133 25.0914 2.72038 25.1419 2.74148C25.2179 2.77344 25.2958 2.80118 25.3728 2.83103C25.4044 2.84327 25.4187 2.83441 25.4174 2.79918C25.4158 2.75888 25.4162 2.71837 25.4169 2.67797C25.4198 2.50951 25.3902 2.56099 25.5373 2.4746C25.6475 2.41004 25.7596 2.34843 25.8851 2.27734Z" fill="white"/>
<path d="M18.4584 8.00389C18.467 7.97762 18.4772 7.95178 18.4837 7.92498C18.5258 7.75114 18.6003 7.5907 18.6824 7.43289C18.8574 7.09639 19.0313 6.75926 19.2044 6.4217C19.5996 5.65123 19.9937 4.88024 20.3889 4.10987C20.5203 3.85365 20.6432 3.59215 20.7887 3.34404C21.0008 2.98233 21.3254 2.77906 21.7432 2.72727C22.0012 2.6953 22.2464 2.74256 22.4721 2.86482C22.8489 3.06894 23.0694 3.38845 23.1316 3.81335C23.1762 4.11715 23.1045 4.397 22.959 4.66452C22.7165 5.11041 22.4805 5.55978 22.2414 6.00756C21.9388 6.57455 21.6359 7.14143 21.3333 7.70853C21.1258 8.09745 20.919 8.4867 20.7116 8.87573C20.4 9.45991 20.088 10.0439 19.7766 10.6281C19.7006 10.7707 19.6303 10.9165 19.5502 11.0567C19.3161 11.4666 18.9586 11.6786 18.4889 11.7011C18.1096 11.7192 17.7921 11.5793 17.5287 11.3111C17.4117 11.192 17.3295 11.0481 17.2533 10.9014C16.9257 10.27 16.5906 9.64272 16.2528 9.01676C16.1661 8.856 16.0858 8.69187 16.0024 8.52942C15.985 8.49566 15.968 8.46138 15.9354 8.42625C15.908 8.54841 15.872 8.65948 15.8305 8.76887C15.6333 9.2885 15.3658 9.76571 15.0067 10.1937C14.4968 10.8014 13.8708 11.2399 13.1324 11.5225C12.7679 11.662 12.3907 11.7504 12.003 11.7924C11.6416 11.8316 11.2805 11.8247 10.921 11.7701C10.3453 11.6826 9.80244 11.4972 9.29874 11.2048C9.00486 11.0342 8.73355 10.8308 8.48344 10.6C8.39557 10.519 8.30664 10.4391 8.23027 10.3469C8.19219 10.3011 8.17204 10.3398 8.15337 10.3632C8.01213 10.54 7.83881 10.6841 7.6713 10.8337C7.40896 11.068 7.11518 11.2579 6.80041 11.4129C6.31855 11.6502 5.81549 11.8247 5.27867 11.8876C4.43415 11.9865 3.61705 11.8818 2.83424 11.5453C2.37411 11.3475 1.95417 11.0822 1.58159 10.7473C1.17484 10.3816 0.83528 9.96129 0.575363 9.47795C0.300572 8.96697 0.109959 8.4272 0.0407598 7.85093C-0.0481649 7.10958 0.00194098 6.37993 0.255318 5.66969C0.538759 4.87496 0.992771 4.19742 1.62706 3.64109C2.14795 3.18423 2.74373 2.86313 3.41083 2.67716C3.82328 2.56218 4.24269 2.48834 4.67349 2.49646C5.19892 2.50638 5.66633 2.81514 5.83859 3.29657C6.06675 3.93445 5.83215 4.53171 5.25493 4.85471C5.11907 4.93076 4.9659 4.94975 4.81326 4.9661C4.51991 4.99732 4.22687 5.02591 3.94691 5.13171C3.6757 5.23414 3.42865 5.37423 3.21483 5.5699C2.79711 5.95208 2.56884 6.43067 2.50607 6.98932C2.40692 7.87277 2.85017 8.72256 3.62802 9.15601C3.95798 9.33987 4.30999 9.42858 4.687 9.42995C5.28911 9.43227 5.81854 9.23523 6.28933 8.86465C6.46243 8.72837 6.60009 8.56075 6.73944 8.39355C6.83047 8.28437 6.92668 8.17942 7.0079 8.06212C7.05273 7.99735 7.06528 7.93237 7.05242 7.85378C7.02225 7.67023 7.01033 7.48469 7.00358 7.2984C6.9868 6.83152 7.03765 6.37276 7.16318 5.92328C7.34324 5.27876 7.64725 4.6988 8.06898 4.17749C8.41529 3.74943 8.82954 3.40322 9.30338 3.13001C9.69864 2.90216 10.1134 2.71482 10.5689 2.63729C10.8511 2.58929 11.1328 2.5875 11.3944 2.71777C11.7821 2.91081 12.0271 3.22115 12.0913 3.65449C12.1454 4.01947 12.0605 4.35586 11.8205 4.63983C11.6549 4.83572 11.4537 4.98551 11.1933 5.04247C10.9215 5.10197 10.6645 5.20228 10.4361 5.36347C10.1897 5.53741 9.98714 5.75102 9.83071 6.01358C9.66573 6.29048 9.55592 6.58299 9.52216 6.90145C9.46762 7.41686 9.56309 7.90357 9.8441 8.34345C10.1591 8.83649 10.5966 9.16719 11.1789 9.27436C11.6926 9.36888 12.1881 9.29451 12.6492 9.04398C12.9493 8.881 13.1843 8.64229 13.38 8.36444C13.3906 8.34935 13.411 8.33205 13.4018 8.31412C13.3921 8.29524 13.3666 8.30537 13.3483 8.30537C12.9828 8.30505 12.6173 8.30642 12.2518 8.30505C12.0604 8.30431 11.8733 8.27826 11.7012 8.18617C11.3618 8.00463 11.1785 7.71612 11.1296 7.34006C11.0923 7.05409 11.1632 6.79238 11.3313 6.55883C11.5147 6.30419 11.7595 6.15451 12.0773 6.1293C12.2 6.11959 12.3229 6.11442 12.4456 6.114C13.1626 6.11157 13.8796 6.11284 14.5966 6.11284C14.6124 6.11284 14.6282 6.11305 14.644 6.11284C14.7051 6.112 14.7087 6.10725 14.6812 6.05493C14.601 5.90261 14.5185 5.75155 14.4396 5.5986C14.2575 5.24596 14.0533 4.90502 13.8794 4.54817C13.6406 4.05839 13.727 3.49172 14.1033 3.09668C14.3017 2.88834 14.5543 2.77843 14.8344 2.72769C15.3689 2.63085 15.9059 2.9529 16.1289 3.37062C16.3075 3.70523 16.478 4.04426 16.6513 4.3816C17.0759 5.20798 17.5 6.03467 17.9244 6.86116C18.0432 7.09238 18.1604 7.32445 18.2817 7.55431C18.3565 7.69671 18.4139 7.8446 18.4584 8.00389Z" fill="white"/>
</svg>
