<svg width="32" height="32" viewBox="0 0 32 32" fill="none" xmlns="http://www.w3.org/2000/svg">
<path d="M23.2665 30.3333C21.7598 30.3333 20.1732 29.9733 18.5332 29.28C16.9332 28.6 15.3198 27.6667 13.7465 26.5333C12.1865 25.3867 10.6798 24.1067 9.25317 22.7067C7.83984 21.28 6.55984 19.7733 5.4265 18.2267C4.27984 16.6267 3.35984 15.0267 2.7065 13.48C2.01317 11.8267 1.6665 10.2267 1.6665 8.72C1.6665 7.68 1.85317 6.69333 2.21317 5.77333C2.5865 4.82667 3.1865 3.94667 3.99984 3.18667C5.0265 2.17333 6.19984 1.66667 7.45317 1.66667C7.97317 1.66667 8.5065 1.78667 8.95984 2C9.47984 2.24 9.91984 2.6 10.2398 3.08L13.3332 7.44C13.6132 7.82667 13.8265 8.2 13.9732 8.57333C14.1465 8.97333 14.2398 9.37333 14.2398 9.76C14.2398 10.2667 14.0932 10.76 13.8132 11.2267C13.6132 11.5867 13.3065 11.9733 12.9198 12.36L12.0132 13.3067C12.0265 13.3467 12.0398 13.3733 12.0532 13.4C12.2132 13.68 12.5332 14.16 13.1465 14.88C13.7998 15.6267 14.4132 16.3067 15.0265 16.9333C15.8132 17.7067 16.4665 18.32 17.0798 18.8267C17.8398 19.4667 18.3332 19.7867 18.6265 19.9333L18.5998 20L19.5732 19.04C19.9865 18.6267 20.3865 18.32 20.7732 18.12C21.5065 17.6667 22.4398 17.5867 23.3732 17.9733C23.7198 18.12 24.0932 18.32 24.4932 18.6L28.9198 21.7467C29.4132 22.08 29.7732 22.5067 29.9865 23.0133C30.1865 23.52 30.2798 23.9867 30.2798 24.4533C30.2798 25.0933 30.1332 25.7333 29.8532 26.3333C29.5732 26.9333 29.2265 27.4533 28.7865 27.9333C28.0265 28.7733 27.1998 29.3733 26.2398 29.76C25.3198 30.1333 24.3198 30.3333 23.2665 30.3333ZM7.45317 3.66667C6.71984 3.66667 6.03984 3.98667 5.3865 4.62667C4.77317 5.2 4.3465 5.82667 4.07984 6.50667C3.79984 7.2 3.6665 7.93333 3.6665 8.72C3.6665 9.96 3.95984 11.3067 4.5465 12.6933C5.1465 14.1067 5.9865 15.5733 7.05317 17.04C8.11984 18.5067 9.33317 19.9333 10.6665 21.28C11.9998 22.6 13.4398 23.8267 14.9198 24.9067C16.3598 25.96 17.8398 26.8133 19.3065 27.4267C21.5865 28.4 23.7198 28.6267 25.4798 27.8933C26.1598 27.6133 26.7598 27.1867 27.3065 26.5733C27.6132 26.24 27.8532 25.88 28.0532 25.4533C28.2132 25.12 28.2932 24.7733 28.2932 24.4267C28.2932 24.2133 28.2532 24 28.1465 23.76C28.1065 23.68 28.0265 23.5333 27.7732 23.36L23.3465 20.2133C23.0798 20.0267 22.8398 19.8933 22.6132 19.8C22.3198 19.68 22.1998 19.56 21.7465 19.84C21.4798 19.9733 21.2398 20.1733 20.9732 20.44L19.9598 21.44C19.4398 21.9467 18.6398 22.0667 18.0265 21.84L17.6665 21.68C17.1198 21.3867 16.4798 20.9333 15.7732 20.3333C15.1332 19.7867 14.4398 19.1467 13.5998 18.32C12.9465 17.6533 12.2932 16.9467 11.6132 16.16C10.9865 15.4267 10.5332 14.8 10.2532 14.28L10.0932 13.88C10.0132 13.5733 9.9865 13.4 9.9865 13.2133C9.9865 12.7333 10.1598 12.3067 10.4932 11.9733L11.4932 10.9333C11.7598 10.6667 11.9598 10.4133 12.0932 10.1867C12.1998 10.0133 12.2398 9.86667 12.2398 9.73334C12.2398 9.62667 12.1998 9.46667 12.1332 9.30667C12.0398 9.09333 11.8932 8.85333 11.7065 8.6L8.61317 4.22667C8.47984 4.04 8.31984 3.90667 8.11984 3.81333C7.9065 3.72 7.67984 3.66667 7.45317 3.66667ZM18.5998 20.0133L18.3865 20.92L18.7465 19.9867C18.6798 19.9733 18.6265 19.9867 18.5998 20.0133Z" fill="#F2F2F2"/>
</svg>
