<svg width="20" height="21" viewBox="0 0 20 21" fill="none" xmlns="http://www.w3.org/2000/svg">
<path d="M1.10059 5.664C1.28558 5.22737 1.53849 4.82899 1.80799 4.44293C3.2351 2.39611 5.1459 1.02365 7.54715 0.360389C9.1021 -0.0694497 10.6779 -0.107685 12.2605 0.207756C14.0352 0.561433 15.5855 1.36098 16.9272 2.57557C17.0154 2.65543 17.013 2.69613 16.9318 2.77692C16.0388 3.66743 15.1483 4.56072 14.2611 5.45679C14.1787 5.53973 14.1348 5.53079 14.0527 5.4574C12.8392 4.36831 11.4059 3.87835 9.7966 4.02975C7.17993 4.2755 5.44429 5.71734 4.47875 8.1385C4.46554 8.17149 4.44925 8.20325 4.4345 8.23563C4.15639 8.01948 3.87798 7.80332 3.59987 7.58717C2.98311 7.10738 2.36913 6.62389 1.74807 6.15026C1.53327 5.98653 1.33813 5.79628 1.10059 5.664Z" fill="#D32B1D"/>
<path d="M16.9603 17.9967C16.5135 18.4315 16.0123 18.7938 15.4779 19.1105C14.214 19.8588 12.8428 20.2677 11.3871 20.4133C9.8641 20.5659 8.37092 20.4327 6.9223 19.9267C4.53887 19.0935 2.70213 17.582 1.40931 15.4066C1.29469 15.2136 1.17177 15.0242 1.09863 14.809C1.12998 14.7917 1.16409 14.7785 1.19175 14.7572C1.63272 14.4177 2.0737 14.0782 2.51283 13.7363C3.15356 13.2374 3.79305 12.7363 4.43285 12.2361C4.62983 12.7548 4.85631 13.2592 5.17161 13.7184C6.21612 15.2395 7.63493 16.1861 9.46952 16.4177C10.947 16.6042 12.3545 16.34 13.6341 15.5312C13.6728 15.5065 13.7149 15.4871 13.7551 15.4649C13.9023 15.6545 14.1135 15.7649 14.2978 15.9086C15.1869 16.603 16.0731 17.3005 16.9603 17.9967Z" fill="#4DA349"/>
<path d="M16.9603 17.9967C16.0731 17.3005 15.1865 16.603 14.2978 15.9089C14.1134 15.7649 13.9023 15.6548 13.7551 15.4652C14.1113 15.188 14.4561 14.8997 14.7434 14.5469C15.2415 13.9349 15.5691 13.2432 15.7369 12.4714C15.7676 12.3302 15.7218 12.3059 15.5968 12.3068C14.9825 12.3108 14.3682 12.3083 13.7539 12.3083C12.6276 12.3083 11.5014 12.3062 10.3751 12.3114C10.2436 12.312 10.2006 12.2827 10.2012 12.143C10.2067 10.9207 10.2064 9.69814 10.2012 8.47585C10.2006 8.34202 10.2451 8.31674 10.3674 8.31674C13.4595 8.31982 16.5516 8.32136 19.6436 8.31427C19.8228 8.31396 19.8256 8.41294 19.8437 8.52703C20.0225 9.65929 20.0505 10.794 19.9144 11.9334C19.7638 13.1942 19.4227 14.3962 18.8403 15.5266C18.3757 16.4288 17.778 17.2308 17.0429 17.9292C17.0174 17.9539 16.9879 17.9742 16.9603 17.9967Z" fill="#4B7BEF"/>
<path d="M4.43315 12.2361C3.79335 12.7362 3.15385 13.2373 2.51313 13.7362C2.074 14.0782 1.63302 14.4177 1.19204 14.7572C1.16408 14.7787 1.12997 14.792 1.09893 14.809C0.881976 14.4695 0.749529 14.0911 0.613394 13.7165C0.0645541 12.2059 -0.114295 10.6484 0.0700856 9.05301C0.203147 7.90317 0.521511 6.8036 1.03225 5.76292C1.05007 5.72654 1.05929 5.6846 1.10016 5.66394C1.33801 5.79622 1.53284 5.98678 1.74734 6.15021C2.3687 6.62414 2.98238 7.10763 3.59913 7.58711C3.87724 7.80327 4.15566 8.01942 4.43377 8.23557C4.31423 8.68021 4.1953 9.12424 4.14859 9.5846C4.06347 10.4255 4.14029 11.2494 4.38828 12.0576C4.40642 12.1161 4.4184 12.1766 4.43315 12.2361Z" fill="#E7B101"/>
</svg>
