<svg width="16" height="16" viewBox="0 0 16 16" fill="none" xmlns="http://www.w3.org/2000/svg">
<path d="M14.6668 10V6.00004C14.6668 2.66671 13.3335 1.33337 10.0002 1.33337H6.00016C2.66683 1.33337 1.3335 2.66671 1.3335 6.00004V10C1.3335 13.3334 2.66683 14.6667 6.00016 14.6667H10.0002C13.3335 14.6667 14.6668 13.3334 14.6668 10Z" stroke="#E6E6E6" stroke-linecap="round" stroke-linejoin="round"/>
<path d="M1.68018 4.73999H14.3202" stroke="#E6E6E6" stroke-linecap="round" stroke-linejoin="round"/>
<path d="M5.68018 1.40662V4.64662" stroke="#E6E6E6" stroke-linecap="round" stroke-linejoin="round"/>
<path d="M10.3198 1.40662V4.34662" stroke="#E6E6E6" stroke-linecap="round" stroke-linejoin="round"/>
<path d="M6.5 9.63333V8.83333C6.5 7.80666 7.22667 7.38666 8.11333 7.9L8.80667 8.3L9.5 8.7C10.3867 9.21333 10.3867 10.0533 9.5 10.5667L8.80667 10.9667L8.11333 11.3667C7.22667 11.88 6.5 11.46 6.5 10.4333V9.63333V9.63333Z" stroke="#E6E6E6" stroke-miterlimit="10" stroke-linecap="round" stroke-linejoin="round"/>
</svg>
