<svg width="32" height="32" viewBox="0 0 32 32" fill="none" xmlns="http://www.w3.org/2000/svg">
<path d="M25.213 19.5899C25.213 21.3099 26.6263 22.7099 28.3463 22.7099C28.3463 27.7099 27.093 28.9633 22.093 28.9633H9.58634C4.58634 28.9633 3.33301 27.7099 3.33301 22.7099V22.0966C5.05301 22.0966 6.46634 20.6833 6.46634 18.9633C6.46634 17.2433 5.05301 15.8299 3.33301 15.8299V15.2166C3.34634 10.2166 4.58634 8.96326 9.58634 8.96326H22.0797C27.0797 8.96326 28.333 10.2166 28.333 15.2166V16.4699C26.613 16.4699 25.213 17.8566 25.213 19.5899Z" stroke="#DEDEDE" stroke-width="2" stroke-linecap="round" stroke-linejoin="round"/>
<path d="M21.6151 8.96329H9.49512L13.4018 5.05663C16.5885 1.86996 18.1885 1.86996 21.3751 5.05663L22.1751 5.85663C21.3351 6.69663 21.1351 7.93663 21.6151 8.96329Z" stroke="#DEDEDE" stroke-width="2" stroke-linecap="round" stroke-linejoin="round"/>
<path d="M13.1719 8.9635L13.1719 28.9635" stroke="#DEDEDE" stroke-width="2" stroke-linecap="round" stroke-linejoin="round" stroke-dasharray="6.67 6.67"/>
</svg>
