<svg width="32" height="32" viewBox="0 0 32 32" fill="none" xmlns="http://www.w3.org/2000/svg">
<path d="M8 13.3333V10.6666C8 6.25329 9.33333 2.66663 16 2.66663C22.6667 2.66663 24 6.25329 24 10.6666V13.3333" stroke="#DEDEDE" stroke-width="2" stroke-linecap="round" stroke-linejoin="round"/>
<path d="M16.0003 24.6667C17.8413 24.6667 19.3337 23.1743 19.3337 21.3333C19.3337 19.4924 17.8413 18 16.0003 18C14.1594 18 12.667 19.4924 12.667 21.3333C12.667 23.1743 14.1594 24.6667 16.0003 24.6667Z" stroke="#DEDEDE" stroke-width="2" stroke-linecap="round" stroke-linejoin="round"/>
<path d="M22.667 29.3334H9.33366C4.00033 29.3334 2.66699 28 2.66699 22.6667V20C2.66699 14.6667 4.00033 13.3334 9.33366 13.3334H22.667C28.0003 13.3334 29.3337 14.6667 29.3337 20V22.6667C29.3337 28 28.0003 29.3334 22.667 29.3334Z" stroke="#DEDEDE" stroke-width="2" stroke-linecap="round" stroke-linejoin="round"/>
</svg>
