<svg width="32" height="32" viewBox="0 0 32 32" fill="none" xmlns="http://www.w3.org/2000/svg">
<path d="M2.66699 2.66663H4.987C6.427 2.66663 7.56033 3.90663 7.44033 5.33329L6.33366 18.6133C6.14699 20.7866 7.86698 22.6533 10.0537 22.6533H24.2537C26.1737 22.6533 27.8537 21.08 28.0003 19.1733L28.7203 9.1733C28.8803 6.95997 27.2003 5.15995 24.9737 5.15995H7.76034" stroke="#DEDEDE" stroke-width="2" stroke-miterlimit="10" stroke-linecap="round" stroke-linejoin="round"/>
<path d="M21.6667 29.3333C22.5871 29.3333 23.3333 28.5871 23.3333 27.6667C23.3333 26.7462 22.5871 26 21.6667 26C20.7462 26 20 26.7462 20 27.6667C20 28.5871 20.7462 29.3333 21.6667 29.3333Z" stroke="#DEDEDE" stroke-width="2" stroke-miterlimit="10" stroke-linecap="round" stroke-linejoin="round"/>
<path d="M10.9997 29.3333C11.9201 29.3333 12.6663 28.5871 12.6663 27.6667C12.6663 26.7462 11.9201 26 10.9997 26C10.0792 26 9.33301 26.7462 9.33301 27.6667C9.33301 28.5871 10.0792 29.3333 10.9997 29.3333Z" stroke="#DEDEDE" stroke-width="2" stroke-miterlimit="10" stroke-linecap="round" stroke-linejoin="round"/>
<path d="M12 10.6666H28" stroke="#DEDEDE" stroke-width="2" stroke-miterlimit="10" stroke-linecap="round" stroke-linejoin="round"/>
</svg>
