<svg width="28" height="28" viewBox="0 0 28 28" fill="none" xmlns="http://www.w3.org/2000/svg">
<path d="M26.0413 11.6666C26.0413 11.8688 25.8685 12.0416 25.6663 12.0416C24.2702 12.0416 23.1247 13.1872 23.1247 14.5833C23.1247 15.9794 24.2702 17.125 25.6663 17.125C25.8685 17.125 26.0413 17.2978 26.0413 17.5C26.0413 20.0552 25.6449 21.5481 24.763 22.4299C23.8811 23.3118 22.3883 23.7083 19.833 23.7083H13.0413V21.5833C13.0413 20.8288 12.4208 20.2083 11.6663 20.2083C10.9119 20.2083 10.2913 20.8288 10.2913 21.5833V23.7083H8.16634C5.61106 23.7083 4.11822 23.3118 3.23635 22.4299C2.35449 21.5481 1.95801 20.0552 1.95801 17.5V16.9166C1.95801 16.7144 2.13082 16.5416 2.33301 16.5416C3.72915 16.5416 4.87467 15.3961 4.87467 14C4.87467 12.6038 3.72915 11.4583 2.33301 11.4583C2.13082 11.4583 1.95801 11.2855 1.95801 11.0833V10.5C1.95801 7.94468 2.35449 6.45184 3.23635 5.56997C4.11822 4.68811 5.61106 4.29163 8.16634 4.29163H10.2913V6.41663C10.2913 7.1711 10.9119 7.79163 11.6663 7.79163C12.4208 7.79163 13.0413 7.1711 13.0413 6.41663V4.29163H19.833C22.3883 4.29163 23.8811 4.68811 24.763 5.56997C25.6449 6.45184 26.0413 7.94468 26.0413 10.5V11.6666ZM11.6663 17.9066C12.4208 17.9066 13.0413 17.2861 13.0413 16.5316V11.4683C13.0413 10.7138 12.4208 10.0933 11.6663 10.0933C10.9119 10.0933 10.2913 10.7138 10.2913 11.4683V16.5316C10.2913 17.2861 10.9119 17.9066 11.6663 17.9066Z" fill="#FCC434" stroke="#FCC434"/>
</svg>
