<svg width="28" height="28" viewBox="0 0 28 28" fill="none" xmlns="http://www.w3.org/2000/svg">
<path d="M11.7166 3.67511L11.7171 3.67475C12.982 2.65878 15.0124 2.66474 16.2962 3.68752C16.2963 3.68762 16.2965 3.68771 16.2966 3.68781L23.9332 9.79707C23.9338 9.79759 23.9345 9.79812 23.9351 9.79864C24.3752 10.1582 24.7564 10.7209 25.0023 11.3644C25.248 12.0074 25.3396 12.6814 25.2541 13.2426L23.7854 22.0318C23.7853 22.0324 23.7852 22.033 23.7851 22.0337C23.4938 23.7053 21.8672 25.0833 20.1835 25.0833H7.81679C6.10826 25.0833 4.51813 23.7389 4.22693 22.0459C4.22686 22.0455 4.22679 22.045 4.22672 22.0446L2.75714 13.2505L2.75692 13.2491C2.66108 12.6837 2.7471 12.0084 2.99225 11.3655C3.23738 10.7227 3.62323 10.1605 4.07393 9.80092L4.07495 9.80011L11.7166 3.67511ZM14.0001 22.4583C14.8006 22.4583 15.4585 21.8004 15.4585 20.9999V17.4999C15.4585 16.6994 14.8006 16.0416 14.0001 16.0416C13.1996 16.0416 12.5418 16.6994 12.5418 17.4999V20.9999C12.5418 21.8004 13.1996 22.4583 14.0001 22.4583Z" fill="#FCC434" stroke="#FCC434" stroke-width="1.16667"/>
</svg>
