<svg width="18" height="15" viewBox="0 0 18 15" fill="none" xmlns="http://www.w3.org/2000/svg">
<path d="M9.274 14.5796H3.96006C1.30309 14.5796 0.420242 12.8139 0.420242 11.0398V3.96019C0.420242 1.30322 1.30309 0.420365 3.96006 0.420365H9.274C11.931 0.420365 12.8138 1.30322 12.8138 3.96019V11.0398C12.8138 13.6968 11.9226 14.5796 9.274 14.5796Z" stroke="black" stroke-width="0.833333" stroke-linecap="round" stroke-linejoin="round"/>
<path d="M15.1511 11.7882L12.8137 10.1486V4.84308L15.1511 3.2035C16.2946 2.40473 17.2364 2.8924 17.2364 4.29655V10.7035C17.2364 12.1077 16.2946 12.5954 15.1511 11.7882Z" stroke="black" stroke-width="0.833333" stroke-linecap="round" stroke-linejoin="round"/>
<path d="M8.40829 6.65921C9.10484 6.65921 9.6695 6.09454 9.6695 5.39799C9.6695 4.70144 9.10484 4.13677 8.40829 4.13677C7.71173 4.13677 7.14707 4.70144 7.14707 5.39799C7.14707 6.09454 7.71173 6.65921 8.40829 6.65921Z" stroke="black" stroke-width="0.833333" stroke-linecap="round" stroke-linejoin="round"/>
</svg>
