<svg width="16" height="16" viewBox="0 0 16 16" fill="none" xmlns="http://www.w3.org/2000/svg">
<path d="M7.99968 15.1666C4.04634 15.1666 0.833008 11.9533 0.833008 7.99992C0.833008 4.04659 4.04634 0.833252 7.99968 0.833252C11.953 0.833252 15.1663 4.04659 15.1663 7.99992C15.1663 11.9533 11.953 15.1666 7.99968 15.1666ZM7.99968 1.83325C4.59967 1.83325 1.83301 4.59992 1.83301 7.99992C1.83301 11.3999 4.59967 14.1666 7.99968 14.1666C11.3997 14.1666 14.1663 11.3999 14.1663 7.99992C14.1663 4.59992 11.3997 1.83325 7.99968 1.83325Z" fill="#DEDEDE"/>
<path d="M10.4731 10.6199C10.3864 10.6199 10.2998 10.5999 10.2198 10.5466L8.1531 9.31326C7.63977 9.00659 7.25977 8.33326 7.25977 7.73992V5.00659C7.25977 4.73326 7.48643 4.50659 7.75977 4.50659C8.0331 4.50659 8.25977 4.73326 8.25977 5.00659V7.73992C8.25977 7.97992 8.45977 8.33326 8.66643 8.45326L10.7331 9.68659C10.9731 9.82659 11.0464 10.1333 10.9064 10.3733C10.8064 10.5333 10.6398 10.6199 10.4731 10.6199Z" fill="#DEDEDE"/>
</svg>
