<svg width="48" height="48" viewBox="0 0 48 48" fill="none" xmlns="http://www.w3.org/2000/svg">
<path d="M24.0092 35.7666C22.3116 35.7666 20.6141 35.7692 18.9166 35.7658C18.2438 35.7641 18.2549 35.7572 18.3037 36.4138C18.3319 36.7973 18.3439 37.1859 18.3148 37.5677C18.2506 38.4083 18.2729 39.2455 18.3122 40.087C18.3662 41.2392 18.2395 42.3906 18.3011 43.5479C18.3576 44.6257 17.7173 45.5228 16.839 45.8489C15.3444 46.4036 13.8095 45.3695 13.7778 43.7499C13.747 42.2099 13.7667 40.6691 13.7658 39.1282C13.765 38.1729 13.7556 37.2167 13.7727 36.2614C13.7795 35.8933 13.6511 35.7478 13.2762 35.7632C12.778 35.7846 12.278 35.7735 11.779 35.7589C11.1566 35.7409 10.8579 35.479 10.8699 34.8738C10.8793 34.4047 10.6901 34.3062 10.2638 34.2951C8.78113 34.2566 8.00984 33.3852 7.92681 31.9068C7.83949 30.3531 8.00556 28.8028 7.89856 27.2492C7.8412 26.4137 7.90969 25.5679 7.94735 24.7282C7.96533 24.3327 7.85576 24.0861 7.44743 23.9637C7.0117 23.8328 6.71295 23.5006 6.5854 23.0743C6.35598 22.3107 6.33629 21.5206 6.52804 20.7502C6.72579 19.9575 7.27023 19.562 8.09373 19.5569C9.47709 19.5475 10.8613 19.5569 12.2447 19.5603C12.8559 19.562 12.8456 19.5423 12.8627 18.9406C12.8867 18.1008 12.9817 17.2636 13.0117 16.423C13.0724 14.7007 13.2385 12.9843 13.2847 11.2603C13.3173 10.0507 13.3644 8.8343 13.5261 7.63672C13.9037 4.83751 15.8999 2.72655 18.5014 2.1804C19.7256 1.92359 21.0002 2.00491 22.2543 2.04258C22.8818 2.06141 23.5075 2.06826 24.135 2.04429C24.6469 2.0246 25.1614 2.02032 25.6742 2.04172C26.3162 2.06826 26.9556 2.06569 27.5977 2.03916C30.1452 1.93472 32.2442 2.7839 33.6661 4.98646C34.214 5.83564 34.5513 6.77384 34.6103 7.79423C34.7576 10.3409 34.8851 12.8884 35.0495 15.4334C35.1239 16.5848 35.1727 17.7361 35.2215 18.8883C35.2523 19.6117 35.2652 19.6262 35.9817 19.6297C37.2794 19.6365 38.578 19.6297 39.8758 19.6382C41.0717 19.6459 41.6332 20.2109 41.6384 21.3956C41.6401 21.7381 41.6324 22.0805 41.6461 22.4229C41.6778 23.2096 41.3054 23.7728 40.5444 23.9877C40.2696 24.0656 40.1917 24.1615 40.2191 24.4534C40.2756 25.0637 40.1737 25.6809 40.1968 26.2887C40.261 28.0119 40.1275 29.7359 40.2345 31.4582C40.2627 31.9154 40.2422 32.3759 40.0778 32.8091C39.7046 33.7926 38.9461 34.3062 37.8598 34.3011C37.4935 34.2994 37.2598 34.2883 37.294 34.8053C37.3394 35.4722 36.9935 35.7572 36.3181 35.7649C35.8473 35.7701 35.3748 35.7872 34.9065 35.7538C34.4793 35.7238 34.3415 35.8608 34.345 36.3034C34.3664 38.6994 34.3569 41.0963 34.3544 43.4923C34.3535 44.1497 34.226 44.7678 33.7611 45.2737C33.0772 46.0184 32.2297 46.1057 31.3249 45.8326C30.3943 45.5519 29.9381 44.8491 29.8747 43.9169C29.8148 43.0232 29.7506 42.1278 29.8396 41.2264C29.9038 40.5758 29.8276 39.9166 29.8088 39.2618C29.7848 38.422 29.8371 37.5805 29.8533 36.7399C29.8559 36.5833 29.8413 36.4266 29.8362 36.27C29.8251 35.9044 29.6616 35.7529 29.2729 35.7564C27.5189 35.7735 25.764 35.7641 24.0092 35.7641C24.0092 35.7683 24.0092 35.7675 24.0092 35.7666ZM23.9749 3.64678C23.9749 3.64421 23.9749 3.64164 23.9749 3.63821C22.6053 3.63821 21.2365 3.63308 19.8668 3.64164C19.5407 3.64335 19.2068 3.65362 18.8892 3.72039C16.607 4.20234 15.0002 6.29019 15.0174 8.71018C15.0293 10.3649 14.8504 12.0119 14.7854 13.664C14.6835 16.2834 14.4447 18.8978 14.3454 21.5163C14.2846 23.1248 14.1031 24.7264 14.0894 26.3375C14.086 26.7133 14.1528 26.8306 14.5363 26.8502C16.3879 26.9461 18.2403 26.8049 20.0919 26.8879C20.7451 26.917 21.4042 26.8203 22.0574 26.8528C23.7815 26.9393 25.5055 26.8734 27.2279 26.8699C28.8646 26.8665 30.5039 26.9538 32.1415 26.8494C32.6509 26.8169 33.1662 26.8725 33.679 26.8999C33.9529 26.9144 34.0813 26.8126 34.0556 26.5301C34.0256 26.2039 33.9991 25.8769 33.9786 25.5499C33.8245 23.1471 33.7406 20.7399 33.5805 18.3371C33.3768 15.2947 33.2766 12.2456 33.1063 9.20068C33.0575 8.3224 33.0729 7.41843 32.6877 6.5975C31.7923 4.69027 30.3027 3.66304 28.1686 3.64763C26.7707 3.63821 25.3728 3.64678 23.9749 3.64678ZM24.0554 34.1838C24.0554 34.1821 24.0554 34.1796 24.0554 34.1778C24.2977 34.1778 24.5399 34.1778 24.783 34.1778C28.2337 34.1778 31.6844 34.1727 35.1351 34.1847C35.5331 34.1864 35.6966 34.0777 35.6864 33.6548C35.6615 32.7003 35.6906 31.7442 35.6744 30.7888C35.6496 29.3319 34.7841 28.4835 33.3383 28.4801C31.9977 28.4767 30.658 28.4784 29.3174 28.4784C24.4269 28.4767 19.5364 28.4698 14.645 28.475C13.3293 28.4758 12.4458 29.3687 12.4364 30.6793C12.4296 31.6774 12.4484 32.6755 12.4278 33.6736C12.4193 34.058 12.5314 34.1941 12.9338 34.1932C16.6404 34.1778 20.3479 34.1838 24.0554 34.1838ZM9.52503 28.1334C9.52503 29.3293 9.5216 30.5252 9.52674 31.7219C9.53016 32.4761 9.73989 32.6832 10.4855 32.7209C10.7338 32.7337 10.8639 32.6601 10.8553 32.3913C10.8425 31.9787 10.857 31.5652 10.8339 31.1535C10.7603 29.8138 11.1335 28.6513 12.165 27.7474C12.2875 27.6404 12.3876 27.5385 12.397 27.3622C12.4501 26.3674 12.5075 25.3736 12.5691 24.3798C12.5836 24.1384 12.4852 24.0279 12.2472 24.0553C11.4939 24.1426 10.7406 24.1075 9.98814 24.0476C9.64059 24.0194 9.51219 24.1418 9.51818 24.503C9.53616 25.7126 9.52503 26.923 9.52503 28.1334ZM38.5986 28.2576C38.5995 28.2576 38.6003 28.2576 38.6012 28.2576C38.6012 27.0309 38.602 25.8033 38.6003 24.5766C38.6003 24.3618 38.6226 24.1306 38.3067 24.1067C37.5525 24.0493 36.7984 24.0313 36.0416 24.0647C35.6675 24.0819 35.51 24.2291 35.546 24.6229C35.6213 25.4455 35.6769 26.2707 35.7129 27.0959C35.7266 27.4058 35.8225 27.6369 36.0587 27.8372C36.8874 28.5392 37.205 29.4791 37.2615 30.5277C37.2931 31.1107 37.3137 31.6954 37.324 32.2792C37.3291 32.5634 37.4558 32.6901 37.7314 32.7183C38.2733 32.7748 38.59 32.5274 38.5952 31.9813C38.6063 30.74 38.5986 29.4988 38.5986 28.2576ZM31.4344 39.8798C31.4361 39.8798 31.4387 39.8798 31.4404 39.8798C31.4404 41.1202 31.4353 42.3606 31.443 43.601C31.4464 44.1095 31.6827 44.3706 32.1004 44.3714C32.5199 44.3723 32.7673 44.1035 32.763 43.6078C32.7579 42.9958 32.68 42.3811 32.7176 41.7725C32.8238 40.0647 32.6663 38.3561 32.7579 36.6483C32.8041 35.7889 32.6979 35.7435 31.8368 35.7589C31.5072 35.7649 31.4276 35.9036 31.4301 36.2015C31.4404 37.4273 31.4344 38.6531 31.4344 39.8798ZM16.6841 39.9346C16.6823 39.9346 16.6806 39.9346 16.6789 39.9346C16.6789 38.6814 16.6798 37.4282 16.6781 36.1749C16.6781 35.9798 16.655 35.7683 16.3999 35.7837C16.0592 35.8051 15.6919 35.6339 15.3829 35.8993C15.3504 35.9267 15.3504 36.0089 15.3572 36.0628C15.5147 37.2005 15.2716 38.339 15.3598 39.4741C15.4051 40.0579 15.4479 40.6426 15.3906 41.2221C15.3033 42.0927 15.3675 42.9573 15.4231 43.8227C15.4505 44.243 15.7056 44.4313 16.1199 44.3757C16.5385 44.3192 16.6849 44.0418 16.6841 43.6523C16.6832 42.4128 16.6841 41.1741 16.6841 39.9346ZM37.7477 22.4811C37.7477 22.4819 37.7477 22.4819 37.7477 22.4828C37.8615 22.4828 37.9754 22.4828 38.0893 22.4828C38.4882 22.4828 38.8871 22.4854 39.286 22.4819C40.0624 22.4742 40.047 22.4725 40.059 21.7055C40.0641 21.3546 39.97 21.1637 39.5899 21.1714C39.3485 21.1765 39.1071 21.1457 38.8657 21.138C37.9831 21.1072 37.1022 21.2501 36.2197 21.1791C35.3225 21.1063 35.3011 21.1226 35.3979 22.024C35.3996 22.0385 35.4013 22.0522 35.4022 22.0668C35.4184 22.3612 35.5631 22.4922 35.8687 22.4862C36.4936 22.4717 37.1211 22.4811 37.7477 22.4811ZM10.3348 22.4802C10.3348 22.4811 10.3348 22.4819 10.3348 22.4819C10.649 22.4819 10.9623 22.4837 11.2765 22.4819C11.6043 22.4802 11.9331 22.4665 12.2609 22.4742C12.5503 22.4811 12.6607 22.3535 12.677 22.0668C12.7283 21.1671 12.7352 21.1662 11.8149 21.138C11.7148 21.1346 11.6155 21.1346 11.5153 21.1363C10.6601 21.1525 9.80153 21.2244 8.95063 21.1722C7.96105 21.1114 8.06805 21.0412 8.05521 22.0633C8.05093 22.3835 8.19047 22.4896 8.49436 22.4837C9.10814 22.4717 9.72192 22.4802 10.3348 22.4802Z" fill="black"/>
<path d="M20.141 4.92923C21.806 5.07047 23.4727 4.91125 25.1403 4.96261C26.1761 4.99428 27.2179 4.95405 28.258 4.97888C30.1224 5.02339 31.4167 6.14307 31.6778 7.9784C31.7532 8.50742 31.5058 8.92259 31.0692 8.99792C30.6172 9.07582 30.2422 8.79847 30.1138 8.28999C29.7757 6.95373 29.2869 6.56681 27.925 6.56424C25.3432 6.55996 22.7622 6.55739 20.1804 6.55568C18.8296 6.55482 18.2637 7.01023 17.9752 8.32081C17.8545 8.86952 17.5618 9.09637 17.0867 9.00991C16.5354 8.9089 16.3317 8.61785 16.4036 8.03147C16.6287 6.18416 18.149 4.92238 20.141 4.92923Z" fill="black"/>
</svg>
