<svg width="28" height="28" viewBox="0 0 28 28" fill="none" xmlns="http://www.w3.org/2000/svg">
<path d="M24.4389 7.63887L24.4389 7.63895L24.4474 7.64331C24.6245 7.73401 24.8716 7.90703 25.076 8.22439C25.2789 8.53947 25.4587 9.02633 25.4587 9.77663V18.2233C25.4587 18.9736 25.2789 19.4604 25.076 19.7755C24.8716 20.0929 24.6245 20.2659 24.4474 20.3566L24.4474 20.3566L24.4425 20.3592C24.2723 20.4487 24.014 20.5466 23.6837 20.5466C23.2975 20.5466 22.767 20.4228 22.118 19.9622L22.1174 19.9618L20.4024 18.7485L19.6467 18.2138L19.614 19.139C19.5518 20.8964 19.1418 21.9963 18.3987 22.6735C17.6486 23.3572 16.4528 23.7083 14.5837 23.7083H7.58366C5.66996 23.7083 4.43335 23.0448 3.66569 22.1236C2.88515 21.187 2.54199 19.9261 2.54199 18.6666V9.33329C2.54199 7.38419 2.92455 6.16535 3.67013 5.41976C4.41571 4.67418 5.63456 4.29163 7.58366 4.29163H14.5837C16.4528 4.29163 17.6486 4.64274 18.3987 5.32639C19.1418 6.00358 19.5518 7.10351 19.614 8.86097L19.6467 9.78614L20.4024 9.25147L22.1156 8.03941C22.1159 8.03919 22.1163 8.03897 22.1166 8.03875C22.7309 7.60841 23.232 7.47453 23.6057 7.45868C23.982 7.44271 24.264 7.54503 24.4389 7.63887ZM10.1403 11.0833C10.1403 12.5745 11.3576 13.7766 12.8337 13.7766C14.3097 13.7766 15.527 12.5745 15.527 11.0833C15.527 9.59209 14.3097 8.38996 12.8337 8.38996C11.3576 8.38996 10.1403 9.59209 10.1403 11.0833Z" fill="#FCC434" stroke="#FCC434"/>
</svg>
