<svg width="350" height="100" viewBox="0 0 350 100" fill="none" xmlns="http://www.w3.org/2000/svg">
<path d="M4.6996 100H0V0H4.6996V100ZM28.1655 0H25.8237V100H28.1655V0ZM21.1241 0H18.7824V100H21.1241V0ZM9.38316 0H7.04138V100H9.38316V0ZM46.9479 0H42.2483V100H46.9479V0ZM53.9893 0H51.6475V100H53.9893V0ZM65.7303 0H58.6889V100H65.7303V0ZM82.1548 0H77.4552V100H82.1548V0ZM75.1134 0H70.4138V100H75.1134V0ZM93.8958 0H86.8544V100H93.8958V0ZM100.937 0H98.5954V100H100.937V0ZM107.979 0H103.279V100H107.979V0ZM115.02 0H112.678V100H115.02V0ZM124.403 0H117.362V100H124.403V0ZM133.786 0H129.087V100H133.786V0ZM152.569 0H145.527V100H152.569V0ZM159.61 0H154.91V100H159.61V0ZM168.993 0H161.952V100H168.993V0ZM176.035 0H173.693V100H176.035V0ZM192.363 0H185.321V100H192.363V0ZM201.858 0H199.517V100H201.858V0ZM213.599 0H206.558V100H213.599V0ZM220.641 0H215.941V100H220.641V0ZM239.423 0H232.382V100H239.423V0ZM230.024 0H222.982V100H230.024V0ZM244.107 0H241.765V100H244.107V0ZM253.506 0H248.806V100H253.506V0ZM265.231 0H258.189V100H265.231V0ZM272.272 0H269.93V100H272.272V0ZM279.314 0H274.614V100H279.314V0ZM296.38 0H289.338V100H296.38V0ZM307.479 0H305.137V100H307.479V0ZM314.52 0H309.821V100H314.52V0ZM328.619 0H321.578V100H328.619V0ZM333.303 0H330.961V100H333.303V0ZM350 0H342.044V100H350V0Z" fill="black"/>
</svg>
