<svg width="16" height="16" viewBox="0 0 16 16" fill="none" xmlns="http://www.w3.org/2000/svg">
<path d="M8.3535 13.6134H4.14016C2.0335 13.6134 1.3335 12.2134 1.3335 10.8067V5.19339C1.3335 3.08672 2.0335 2.38672 4.14016 2.38672H8.3535C10.4602 2.38672 11.1602 3.08672 11.1602 5.19339V10.8067C11.1602 12.9134 10.4535 13.6134 8.3535 13.6134Z" stroke="#F2F2F2" stroke-linecap="round" stroke-linejoin="round"/>
<path d="M13.0135 11.3998L11.1602 10.0998V5.89318L13.0135 4.59318C13.9202 3.95984 14.6668 4.34651 14.6668 5.45984V10.5398C14.6668 11.6532 13.9202 12.0398 13.0135 11.3998Z" stroke="#F2F2F2" stroke-linecap="round" stroke-linejoin="round"/>
<path d="M7.6665 7.33325C8.21879 7.33325 8.6665 6.88554 8.6665 6.33325C8.6665 5.78097 8.21879 5.33325 7.6665 5.33325C7.11422 5.33325 6.6665 5.78097 6.6665 6.33325C6.6665 6.88554 7.11422 7.33325 7.6665 7.33325Z" stroke="#F2F2F2" stroke-linecap="round" stroke-linejoin="round"/>
</svg>
