<svg width="28" height="28" viewBox="0 0 28 28" fill="none" xmlns="http://www.w3.org/2000/svg">
<path d="M22.7497 14.5833C22.7497 12.9733 24.0563 11.6666 25.6663 11.6666V10.5C25.6663 5.83329 24.4997 4.66663 19.833 4.66663H8.16634C3.49967 4.66663 2.33301 5.83329 2.33301 10.5V11.0833C3.94301 11.0833 5.24967 12.39 5.24967 14C5.24967 15.61 3.94301 16.9166 2.33301 16.9166V17.5C2.33301 22.1666 3.49967 23.3333 8.16634 23.3333H19.833C24.4997 23.3333 25.6663 22.1666 25.6663 17.5C24.0563 17.5 22.7497 16.1933 22.7497 14.5833Z" stroke="#CCCCCC" stroke-width="1.75" stroke-linecap="round" stroke-linejoin="round"/>
<path d="M11.667 4.66663L11.667 23.3333" stroke="#CCCCCC" stroke-width="1.75" stroke-linecap="round" stroke-linejoin="round" stroke-dasharray="5.83 5.83"/>
</svg>
