<svg width="28" height="28" viewBox="0 0 28 28" fill="none" xmlns="http://www.w3.org/2000/svg">
<path d="M14.618 23.8233H7.24467C3.55801 23.8233 2.33301 21.3733 2.33301 18.9116V9.0883C2.33301 5.40164 3.55801 4.17664 7.24467 4.17664H14.618C18.3047 4.17664 19.5297 5.40164 19.5297 9.0883V18.9116C19.5297 22.5983 18.293 23.8233 14.618 23.8233Z" stroke="#CCCCCC" stroke-width="1.75" stroke-linecap="round" stroke-linejoin="round"/>
<path d="M22.7736 19.95L19.5303 17.675V10.3134L22.7736 8.03836C24.3603 6.93003 25.6669 7.6067 25.6669 9.55503V18.445C25.6669 20.3934 24.3603 21.07 22.7736 19.95Z" stroke="#CCCCCC" stroke-width="1.75" stroke-linecap="round" stroke-linejoin="round"/>
<path d="M13.417 12.8334C14.3835 12.8334 15.167 12.0499 15.167 11.0834C15.167 10.1169 14.3835 9.33337 13.417 9.33337C12.4505 9.33337 11.667 10.1169 11.667 11.0834C11.667 12.0499 12.4505 12.8334 13.417 12.8334Z" stroke="#CCCCCC" stroke-width="1.75" stroke-linecap="round" stroke-linejoin="round"/>
</svg>
