<svg width="27" height="12" viewBox="0 0 27 12" fill="none" xmlns="http://www.w3.org/2000/svg">
<path d="M27.0001 1.58113C26.922 1.73672 26.7695 1.80138 26.6306 1.88198C26.4149 2.00708 26.1981 2.1304 25.9817 2.25455C25.9728 2.25972 25.9645 2.26605 25.9554 2.27227C25.9665 2.29654 25.9899 2.2977 26.0082 2.30476C26.1605 2.36363 26.314 2.41974 26.4658 2.48008C26.6123 2.53831 26.706 2.68842 26.694 2.83831C26.6807 3.00424 26.5664 3.14106 26.409 3.17745C26.333 3.19496 26.2586 3.18431 26.1865 3.1573C25.9645 3.07407 25.743 2.98937 25.5207 2.90698C25.4382 2.87639 25.4395 2.8785 25.4403 2.96479C25.4416 3.12798 25.446 3.29106 25.4322 3.45424C25.4161 3.64454 25.2567 3.78832 25.0565 3.78621C24.8688 3.78421 24.7123 3.63062 24.6981 3.44581C24.6851 3.27703 24.698 3.10899 24.6988 2.94074C24.6991 2.87544 24.6954 2.87281 24.6331 2.89612C24.4192 2.97597 24.2056 3.05656 23.9917 3.13642C23.9075 3.16785 23.8234 3.19549 23.7302 3.17682C23.5751 3.14559 23.4673 3.02555 23.441 2.84865C23.4201 2.70846 23.4961 2.56099 23.6293 2.49612C23.7637 2.43061 23.9083 2.39031 24.0476 2.33694C24.0963 2.31827 24.1448 2.29928 24.1989 2.27839C24.1749 2.25149 24.1491 2.24073 24.1254 2.22734C23.8761 2.08662 23.6264 1.94653 23.3777 1.80487C23.3367 1.78155 23.2985 1.75276 23.2606 1.72438C23.1128 1.61351 23.1079 1.38028 23.1852 1.26066C23.2875 1.10233 23.4917 1.03735 23.6509 1.11826C23.8686 1.22891 24.0763 1.35771 24.2891 1.47733C24.3163 1.49263 24.3435 1.50782 24.3708 1.52301C24.3879 1.50064 24.3723 1.48588 24.3671 1.471C24.2614 1.17132 24.1549 0.871947 24.0492 0.572367C24.0294 0.516038 24.0108 0.458864 24.0044 0.39937C23.9854 0.222997 24.0749 0.0780597 24.2406 0.0133967C24.2504 0.00959923 24.2597 0.00464138 24.2692 0.000210972C24.3359 0.000210972 24.4027 0.000210972 24.4695 0.000210972C24.5878 0.0421944 24.667 0.124052 24.7126 0.239664C24.7255 0.272259 24.7386 0.304855 24.7502 0.337977C24.8438 0.606439 24.9369 0.875006 25.0305 1.14347C25.0404 1.17205 25.0515 1.20011 25.0661 1.23925C25.0753 1.21678 25.0796 1.2075 25.083 1.1979C25.1866 0.90507 25.2945 0.613612 25.3918 0.318673C25.4411 0.168989 25.5203 0.0554856 25.6716 0C25.7349 0 25.7982 0 25.8614 0C25.9264 0.0308019 25.9938 0.0577009 26.0413 0.115613C26.1371 0.232491 26.1516 0.364349 26.1041 0.502535C25.9923 0.828065 25.8767 1.15222 25.763 1.47712C25.7576 1.49263 25.745 1.50792 25.7556 1.52891C25.7953 1.51815 25.8287 1.49526 25.8633 1.47554C26.0722 1.35613 26.2794 1.23376 26.4927 1.12195C26.5555 1.08904 26.6216 1.0787 26.6918 1.08956C26.843 1.11288 26.9421 1.20022 27.0001 1.33851C27.0001 1.41953 27.0001 1.50033 27.0001 1.58113ZM25.8851 2.27734C25.7693 2.23451 25.6697 2.19601 25.5688 2.16109C25.5269 2.14664 25.5145 2.12881 25.5311 2.08419C25.5848 1.93936 25.6347 1.79305 25.685 1.64695C25.6902 1.63197 25.7073 1.61256 25.6887 1.59959C25.6744 1.58957 25.6605 1.60866 25.6476 1.61636C25.5356 1.6825 25.424 1.74906 25.3069 1.80592C25.2679 1.82491 25.2468 1.81868 25.2335 1.7747C25.2136 1.70919 25.1886 1.64537 25.1655 1.58092C25.1345 1.49453 25.1031 1.40813 25.0719 1.32174C25.016 1.44632 24.973 1.57037 24.9273 1.69347C24.9105 1.73862 24.9117 1.80814 24.8694 1.82153C24.8294 1.83419 24.7829 1.78525 24.7401 1.76193C24.6433 1.70951 24.5474 1.65581 24.4417 1.59737C24.4485 1.61773 24.4515 1.62723 24.4547 1.63662C24.5074 1.78746 24.5589 1.93873 24.6134 2.08894C24.6273 2.12744 24.6196 2.14632 24.5809 2.15962C24.4895 2.19084 24.3989 2.22459 24.3085 2.25846C24.2948 2.26362 24.2735 2.26584 24.273 2.28451C24.2725 2.30012 24.2923 2.30287 24.304 2.30941C24.4219 2.37565 24.539 2.44358 24.6588 2.50603C24.7077 2.53145 24.7287 2.56268 24.724 2.61764C24.7197 2.66996 24.723 2.72291 24.7231 2.77565C24.7232 2.84021 24.7235 2.84063 24.7816 2.81985C24.8527 2.79443 24.9242 2.76985 24.9942 2.74158C25.0444 2.72133 25.0914 2.72038 25.1419 2.74148C25.2179 2.77344 25.2958 2.80118 25.3728 2.83103C25.4044 2.84327 25.4187 2.83441 25.4174 2.79918C25.4158 2.75888 25.4162 2.71837 25.4169 2.67797C25.4198 2.50951 25.3902 2.56099 25.5373 2.4746C25.6475 2.41004 25.7596 2.34843 25.8851 2.27734Z" fill="#F2F2F2"/>
<path d="M18.4584 8.00401C18.467 7.97775 18.4772 7.9519 18.4837 7.92511C18.5258 7.75127 18.6003 7.59082 18.6824 7.43302C18.8574 7.09652 19.0313 6.75938 19.2044 6.42183C19.5996 5.65136 19.9937 4.88036 20.3889 4.11C20.5203 3.85377 20.6432 3.59227 20.7887 3.34417C21.0008 2.98246 21.3254 2.77918 21.7432 2.72739C22.0012 2.69543 22.2464 2.74269 22.4721 2.86494C22.8489 3.06906 23.0694 3.38858 23.1316 3.81347C23.1762 4.11727 23.1045 4.39713 22.959 4.66464C22.7165 5.11053 22.4805 5.5599 22.2414 6.00769C21.9388 6.57468 21.6359 7.14156 21.3333 7.70865C21.1258 8.09758 20.919 8.48682 20.7116 8.87585C20.4 9.46004 20.088 10.044 19.7766 10.6282C19.7006 10.7708 19.6303 10.9166 19.5502 11.0568C19.3161 11.4667 18.9586 11.6787 18.4889 11.7012C18.1096 11.7193 17.7921 11.5795 17.5287 11.3112C17.4117 11.1921 17.3295 11.0482 17.2533 10.9015C16.9257 10.2702 16.5906 9.64284 16.2528 9.01689C16.1661 8.85613 16.0858 8.69199 16.0024 8.52954C15.985 8.49579 15.968 8.4615 15.9354 8.42638C15.908 8.54853 15.872 8.65961 15.8305 8.769C15.6333 9.28862 15.3658 9.76584 15.0067 10.1938C14.4968 10.8015 13.8708 11.24 13.1324 11.5226C12.7679 11.6622 12.3907 11.7506 12.003 11.7925C11.6416 11.8317 11.2805 11.8248 10.921 11.7702C10.3453 11.6827 9.80244 11.4973 9.29874 11.2049C9.00486 11.0343 8.73355 10.8309 8.48344 10.6001C8.39557 10.5191 8.30664 10.4393 8.23027 10.3471C8.19219 10.3012 8.17204 10.3399 8.15337 10.3633C8.01213 10.5401 7.83881 10.6842 7.6713 10.8338C7.40896 11.0682 7.11518 11.258 6.80041 11.413C6.31855 11.6503 5.81549 11.8248 5.27867 11.8877C4.43415 11.9866 3.61705 11.8819 2.83424 11.5454C2.37411 11.3476 1.95417 11.0823 1.58159 10.7474C1.17484 10.3818 0.83528 9.96141 0.575363 9.47807C0.300572 8.9671 0.109959 8.42733 0.0407598 7.85106C-0.0481649 7.1097 0.00194098 6.38005 0.255318 5.66982C0.538759 4.87509 0.992771 4.19755 1.62706 3.64122C2.14795 3.18436 2.74373 2.86326 3.41083 2.67728C3.82328 2.5623 4.24269 2.48846 4.67349 2.49659C5.19892 2.5065 5.66633 2.81526 5.83859 3.2967C6.06675 3.93457 5.83215 4.53183 5.25493 4.85483C5.11907 4.93089 4.9659 4.94987 4.81326 4.96623C4.51991 4.99745 4.22687 5.02604 3.94691 5.13184C3.6757 5.23427 3.42865 5.37435 3.21483 5.57003C2.79711 5.9522 2.56884 6.43079 2.50607 6.98945C2.40692 7.87289 2.85017 8.72269 3.62802 9.15613C3.95798 9.33999 4.30999 9.42871 4.687 9.43008C5.28911 9.4324 5.81854 9.23535 6.28933 8.86478C6.46243 8.72849 6.60009 8.56087 6.73944 8.39368C6.83047 8.2845 6.92668 8.17954 7.0079 8.06224C7.05273 7.99747 7.06528 7.93249 7.05242 7.8539C7.02225 7.67036 7.01033 7.48481 7.00358 7.29852C6.9868 6.83164 7.03765 6.37288 7.16318 5.92341C7.34324 5.27889 7.64725 4.69892 8.06898 4.17761C8.41529 3.74955 8.82954 3.40334 9.30338 3.13014C9.69864 2.90229 10.1134 2.71494 10.5689 2.63741C10.8511 2.58941 11.1328 2.58762 11.3944 2.7179C11.7821 2.91094 12.0271 3.22128 12.0913 3.65461C12.1454 4.01959 12.0605 4.35599 11.8205 4.63996C11.6549 4.83584 11.4537 4.98563 11.1933 5.0426C10.9215 5.10209 10.6645 5.20241 10.4361 5.36359C10.1897 5.53754 9.98714 5.75115 9.83071 6.0137C9.66573 6.2906 9.55592 6.58312 9.52216 6.90158C9.46762 7.41698 9.56309 7.90369 9.8441 8.34357C10.1591 8.83661 10.5966 9.16731 11.1789 9.27449C11.6926 9.369 12.1881 9.29463 12.6492 9.0441C12.9493 8.88113 13.1843 8.64241 13.38 8.36456C13.3906 8.34948 13.411 8.33218 13.4018 8.31425C13.3921 8.29536 13.3666 8.30549 13.3483 8.30549C12.9828 8.30517 12.6173 8.30655 12.2518 8.30517C12.0604 8.30444 11.8733 8.27838 11.7012 8.18629C11.3618 8.00475 11.1785 7.71625 11.1296 7.34019C11.0923 7.05421 11.1632 6.7925 11.3313 6.55896C11.5147 6.30432 11.7595 6.15463 12.0773 6.12942C12.2 6.11971 12.3229 6.11455 12.4456 6.11412C13.1626 6.1117 13.8796 6.11296 14.5966 6.11296C14.6124 6.11296 14.6282 6.11317 14.644 6.11296C14.7051 6.11212 14.7087 6.10737 14.6812 6.05505C14.601 5.90273 14.5185 5.75167 14.4396 5.59872C14.2575 5.24608 14.0533 4.90515 13.8794 4.54829C13.6406 4.05852 13.727 3.49185 14.1033 3.0968C14.3017 2.88847 14.5543 2.77855 14.8344 2.72781C15.3689 2.63098 15.9059 2.95302 16.1289 3.37075C16.3075 3.70535 16.478 4.04438 16.6513 4.38173C17.0759 5.2081 17.5 6.0348 17.9244 6.86128C18.0432 7.09251 18.1604 7.32458 18.2817 7.55443C18.3565 7.69684 18.4139 7.84473 18.4584 8.00401Z" fill="#F2F2F2"/>
</svg>
