<svg width="32" height="32" viewBox="0 0 32 32" fill="none" xmlns="http://www.w3.org/2000/svg">
<path d="M3.32027 21.3567L3.32027 21.3567C3.72453 21.3483 4.02126 21.6344 4.02211 22.0396C4.02289 22.4247 4.02246 22.81 4.02204 23.1953C4.02137 23.8055 4.02069 24.4159 4.02478 25.0261C4.02949 25.7197 4.23917 26.3496 4.68209 26.8899C5.20219 27.5245 5.87868 27.8743 6.6938 27.9574C6.94384 27.9829 7.19498 27.9798 7.44426 27.9767C7.5428 27.9755 7.64104 27.9743 7.73882 27.9749H7.73883C8.08988 27.9768 8.4402 27.9764 8.79043 27.9761C9.18721 27.9757 9.58386 27.9754 9.9813 27.9782C10.2542 27.9801 10.4608 28.1097 10.5775 28.3575L10.5775 28.3575C10.6955 28.6078 10.6645 28.8489 10.4947 29.0708L10.4947 29.0708C10.4018 29.1921 10.2709 29.2585 10.1242 29.3059H10.1215H10.1145H10.1076H10.1007H10.0937H10.0868H10.0798H10.0729H10.0659H10.059H10.0521H10.0451H10.0382H10.0312H10.0243H10.0174H10.0104H10.0035H9.99654H9.9896H9.98266H9.97572H9.96878H9.96184H9.9549H9.94796H9.94102H9.93408H9.92714H9.9202H9.91326H9.90632H9.89938H9.89244H9.8855H9.87856H9.87162H9.86468H9.85774H9.8508H9.84385H9.83691H9.82997H9.82303H9.81609H9.80915H9.80221H9.79527H9.78833H9.78139H9.77445H9.76751H9.76057H9.75363H9.74669H9.73975H9.73281H9.72587H9.71893H9.71199H9.70505H9.69811H9.69117H9.68423H9.67729H9.67034H9.6634H9.65646H9.64952H9.64258H9.63564H9.6287H9.62176H9.61482H9.60788H9.60094H9.594H9.58706H9.58012H9.57318H9.56624H9.5593H9.55236H9.54542H9.53848H9.53154H9.5246H9.51766H9.51072H9.50377H9.49683H9.48989H9.48295H9.47601H9.46907H9.46213H9.45519H9.44825H9.44131H9.43437H9.42743H9.42049H9.41355H9.40661H9.39967H9.39273H9.38579H9.37885H9.37191H9.36497H9.35803H9.35109H9.34415H9.3372H9.33026H9.32332H9.31638H9.30944H9.3025H9.29556H9.28862H9.28168H9.27474H9.2678H9.26086H9.25392H9.24698H9.24004H9.2331H9.22616H9.21922H9.21228H9.20534H9.1984H9.19146H9.18452H9.17758H9.17064H9.16369H9.15675H9.14981H9.14287H9.13593H9.12899H9.12205H9.11511H9.10817H9.10123H9.09429H9.08735H9.08041H9.07347H9.06653H9.05959H9.05265H9.04571H9.03877H9.03183H9.02489H9.01795H9.01101H9.00407H8.99712H8.99018H8.98324H8.9763H8.96936H8.96242H8.95548H8.94854H8.9416H8.93466H8.92772H8.92078H8.91384H8.9069H8.89996H8.89302H8.88608H8.87914H8.8722H8.86526H8.85832H8.85138H8.84444H8.8375H8.83055H8.82361H8.81667H8.80973H8.80279H8.79585H8.78891H8.78197H8.77503H8.76809H8.76115H8.75421H8.74727H8.74033H8.73339H8.72645H8.71951H8.71257H8.70563H8.69869H8.69175H8.68481H8.67787H8.67093H8.66398H8.65704H8.6501H8.64316H8.63622H8.62928H8.62234H8.6154H8.60846H8.60152H8.59458H8.58764H8.5807H8.57376H8.56682H8.55988H8.55294H8.546H8.53906H8.53212H8.52518H8.51824H8.5113H8.50436H8.49742H8.49047H8.48353H8.47659H8.46965H8.46271H8.45577H8.44883H8.44189H8.43495H8.42801H8.42107H8.41413H8.40719H8.40025H8.39331H8.38637H8.37943H8.37249H8.36555H8.35861H8.35167H8.34473H8.33779H8.33085H8.3239H8.31696H8.31002H8.30308H8.29614H8.2892H8.28226H8.27532H8.26838H8.26144H8.2545H8.24756H8.24062H8.23368H8.22674H8.2198H8.21286H8.20592H8.19898H8.19204H8.1851H8.17816H8.17122H8.16428H8.15733H8.15039H8.14345H8.13651H8.12957H8.12263H8.11569H8.10875H8.10181H8.09487H8.08793H8.08099H8.07405H8.06711H8.06017H8.05323H8.04629H8.03935H8.03241H8.02547H8.01853H8.01159H8.00465H7.99771H7.99077H7.98382H7.97688H7.96994H7.963H7.95606H7.94912H7.94218H7.93524H7.9283H7.92136H7.91442H7.90748H7.90054H7.8936H7.88666H7.87972H7.87278H7.86584H7.8589H7.85196H7.84502H7.83808H7.83114H7.8242H7.81726H7.81031H7.80337H7.79643H7.78949H7.78255H7.77561H7.76867H7.76173H7.75479H7.74785H7.74091H7.73397H7.72703H7.72009H7.71315H7.70621H7.69927H7.69233H7.68539H7.67845H7.67151H7.66457H7.65763H7.65068H7.64374H7.6368H7.62986H7.62292H7.61598H7.60904H7.6021H7.59516H7.58822H7.58128H7.57434H7.5674H7.56046H7.55352H7.54658H7.53964H7.5327H7.52576H7.51882H7.51188H7.50494H7.498H7.49106H7.48412H7.47717H7.47023H7.46329H7.45635H7.44941H7.44247H7.43553H7.42859H7.42165H7.41471H7.40777H7.40083H7.39389H7.38695H7.38001H7.37307H7.36613H7.35919H7.35225H7.34531H7.33837H7.33143H7.32449H7.31755H7.31061H7.30366H7.29672H7.28978H7.28284H7.2759H7.26896H7.26202H7.25508H7.24814H7.2412H7.23426H7.22732H7.22038H7.21344H7.2065H7.19956H7.19262H7.18568H7.17874H7.1718H7.16486H7.15792H7.15098H7.14403H7.13709H7.13015H7.12321H7.11627H7.10933H7.10239H7.09545H7.08851H7.08157H7.07463H7.06769H7.06075H7.05381H7.04687H7.03993H7.03299H7.02605H7.01911H7.01217H7.00523H6.99829H6.99135H6.98441H6.97747H6.97052H6.96358H6.95664H6.9497H6.94276H6.93582H6.92888H6.92194H6.915H6.90806H6.90112H6.89418H6.88724H6.8803H6.87336H6.86642H6.85948H6.85254H6.8456H6.83866H6.83172H6.82478H6.81784H6.8109H6.80396H6.79701H6.79007H6.78313H6.77619H6.76925H6.76231H6.75537H6.74843H6.74149H6.73455H6.72761H6.72067H6.71373H6.70679H6.69985H6.69291H6.68597H6.67903H6.67209H6.66515H6.65821H6.65127H6.64433H6.63739H6.63044H6.6235H6.61656H6.60962H6.60268H6.59574H6.5888H6.58186H6.57704C6.53599 29.2993 6.49518 29.2934 6.45458 29.2875C6.36832 29.2749 6.28297 29.2624 6.19812 29.2445L6.19809 29.2445C4.59825 28.9087 3.50124 27.985 2.92526 26.4502L2.92525 26.4502C2.80103 26.1195 2.74576 25.7721 2.69268 25.4215C2.6929 24.2397 2.6929 23.0574 2.6929 21.8751C2.75429 21.7063 2.83897 21.5787 2.94329 21.4925C3.0482 21.4057 3.17435 21.3597 3.32027 21.3567Z" fill="#F2F2F2" stroke="#DEDEDE" stroke-width="0.0533319"/>
<path d="M6.19738 2.76965L6.19739 2.76965C6.45594 2.71569 6.71958 2.69842 6.98582 2.69931L6.98583 2.69931C7.6069 2.70098 8.22802 2.70073 8.84908 2.70047C9.21605 2.70032 9.583 2.70017 9.94991 2.70042C10.3544 2.70063 10.6423 2.9814 10.6421 3.36814C10.6419 3.75137 10.3501 4.03681 9.94766 4.03745C9.60243 4.038 9.25705 4.03718 8.91162 4.03637C8.26889 4.03485 7.62595 4.03334 6.98338 4.04057C6.02948 4.05132 5.23601 4.42131 4.63999 5.17634L4.63999 5.17634C4.29112 5.6184 4.10165 6.12741 4.04138 6.6864L4.0679 6.68926L4.04138 6.68641C4.02033 6.88185 4.02153 7.07764 4.02271 7.27166C4.02304 7.32527 4.02337 7.37875 4.02323 7.43205L4.04989 7.43213L4.02323 7.43206C4.02223 7.81383 4.02239 8.19538 4.02256 8.57689C4.02276 9.04634 4.02297 9.51571 4.021 9.98535C4.01971 10.2632 3.89272 10.4739 3.64109 10.5926L3.64108 10.5926C3.38666 10.7128 3.14248 10.6792 2.91972 10.5031L2.91971 10.5031C2.80301 10.4109 2.73858 10.2827 2.69268 10.1396V10.1368V10.1299V10.1229V10.116V10.109V10.1021V10.0951V10.0882V10.0813V10.0743V10.0674V10.0604V10.0535V10.0466V10.0396V10.0327V10.0257V10.0188V10.0119V10.0049V9.99798V9.99104V9.9841V9.97716V9.97022V9.96328V9.95634V9.9494V9.94245V9.93551V9.92857V9.92163V9.91469V9.90775V9.90081V9.89387V9.88693V9.87999V9.87305V9.86611V9.85917V9.85223V9.84529V9.83834V9.8314V9.82446V9.81752V9.81058V9.80364V9.7967V9.78976V9.78282V9.77588V9.76894V9.762V9.75506V9.74812V9.74118V9.73424V9.72729V9.72035V9.71341V9.70647V9.69953V9.69259V9.68565V9.67871V9.67177V9.66483V9.65789V9.65095V9.64401V9.63707V9.63013V9.62318V9.61624V9.6093V9.60236V9.59542V9.58848V9.58154V9.5746V9.56766V9.56072V9.55378V9.54684V9.5399V9.53296V9.52602V9.51907V9.51213V9.50519V9.49825V9.49131V9.48437V9.47743V9.47049V9.46355V9.45661V9.44967V9.44273V9.43579V9.42885V9.42191V9.41497V9.40802V9.40108V9.39414V9.3872V9.38026V9.37332V9.36638V9.35944V9.3525V9.34556V9.33862V9.33168V9.32474V9.3178V9.31086V9.30392V9.29697V9.29003V9.28309V9.27615V9.26921V9.26227V9.25533V9.24839V9.24145V9.23451V9.22757V9.22063V9.21369V9.20675V9.19981V9.19286V9.18592V9.17898V9.17204V9.1651V9.15816V9.15122V9.14428V9.13734V9.1304V9.12346V9.11652V9.10958V9.10264V9.0957V9.08876V9.08181V9.07487V9.06793V9.06099V9.05405V9.04711V9.04017V9.03323V9.02629V9.01935V9.01241V9.00547V8.99853V8.99159V8.98465V8.97771V8.97076V8.96382V8.95688V8.94994V8.943V8.93606V8.92912V8.92218V8.91524V8.9083V8.90136V8.89442V8.88748V8.88054V8.8736V8.86665V8.85971V8.85277V8.84583V8.83889V8.83195V8.82501V8.81807V8.81113V8.80419V8.79725V8.79031V8.78337V8.77643V8.76949V8.76255V8.7556V8.74866V8.74172V8.73478V8.72784V8.7209V8.71396V8.70702V8.70008V8.69314V8.6862V8.67926V8.67232V8.66538V8.65844V8.65149V8.64455V8.63761V8.63067V8.62373V8.61679V8.60985V8.60291V8.59597V8.58903V8.58209V8.57515V8.56821V8.56127V8.55433V8.54739V8.54044V8.5335V8.52656V8.51962V8.51268V8.50574V8.4988V8.49186V8.48492V8.47798V8.47104V8.4641V8.45716V8.45022V8.44328V8.43633V8.42939V8.42245V8.41551V8.40857V8.40163V8.39469V8.38775V8.38081V8.37387V8.36693V8.35999V8.35305V8.34611V8.33917V8.33223V8.32528V8.31834V8.3114V8.30446V8.29752V8.29058V8.28364V8.2767V8.26976V8.26282V8.25588V8.24894V8.242V8.23506V8.22812V8.22117V8.21423V8.20729V8.20035V8.19341V8.18647V8.17953V8.17259V8.16565V8.15871V8.15177V8.14483V8.13789V8.13095V8.12401V8.11706V8.11012V8.10318V8.09624V8.0893V8.08236V8.07542V8.06848V8.06154V8.0546V8.04766V8.04072V8.03378V8.02684V8.0199V8.01296V8.00601V7.99907V7.99213V7.98519V7.97825V7.97131V7.96437V7.95743V7.95049V7.94355V7.93661V7.92967V7.92273V7.91579V7.90885V7.90191V7.89496V7.88802V7.88108V7.87414V7.8672V7.86026V7.85332V7.84638V7.83944V7.8325V7.82556V7.81862V7.81168V7.80474V7.7978V7.79085V7.78391V7.77697V7.77003V7.76309V7.75615V7.74921V7.74227V7.73533V7.72839V7.72145V7.71451V7.70757V7.70063V7.69369V7.68675V7.6798V7.67286V7.66592V7.65898V7.65204V7.6451V7.63816V7.63122V7.62428V7.61734V7.6104V7.60346V7.59652V7.58958V7.58264V7.5757V7.56875V7.56181V7.55487V7.54793V7.54099V7.53405V7.52711V7.52017V7.51323V7.50629V7.49935V7.49241V7.48547V7.47853V7.47159V7.46464V7.4577V7.45076V7.44382V7.43688V7.42994V7.423V7.41606V7.40912V7.40218V7.39524V7.3883V7.38136V7.37442V7.36748V7.36054V7.35359V7.34665V7.33971V7.33277V7.32583V7.31889V7.31195V7.30501V7.29807V7.29113V7.28419V7.27725V7.27031V7.26337V7.25643V7.24948V7.24254V7.2356V7.22866V7.22172V7.21478V7.20784V7.2009V7.19396V7.18702V7.18008V7.17314V7.1662V7.15926V7.15232V7.14538V7.13843V7.13149V7.12455V7.11761V7.11067V7.10373V7.09679V7.08985V7.08291V7.07597V7.06903V7.06209V7.05515V7.04821V7.04127V7.03432V7.02738V7.02044V7.0135V7.00656V6.99962V6.99268V6.98574V6.9788V6.97186V6.96492V6.95798V6.95104V6.9441V6.93716V6.93022V6.92327V6.91633V6.90939V6.90245V6.89551V6.88857V6.88163V6.87469V6.86775V6.86081V6.85387V6.84693V6.83999V6.83305V6.82611V6.81916V6.81222V6.80528V6.79834V6.7914V6.78446V6.77752V6.77058V6.76364V6.7567V6.74976V6.74282V6.73588V6.72894V6.722V6.71506V6.70811V6.70117V6.69423V6.68729V6.68035V6.67341V6.66647V6.65953V6.65259V6.64565V6.63871V6.63177V6.62483V6.61789V6.61095V6.604V6.59706V6.59212C2.74553 6.24154 2.80081 5.89414 2.92503 5.56345C3.50147 4.02948 4.59628 3.10324 6.19738 2.76965Z" fill="#F2F2F2" stroke="#DEDEDE" stroke-width="0.0533319"/>
<path d="M21.3412 28.6242L21.3412 28.6243C21.3389 28.7933 21.3801 28.9313 21.4651 29.0428C21.5497 29.1538 21.6796 29.2411 21.8595 29.3061C23.0412 29.3061 24.223 29.3061 25.4049 29.3067C25.4088 29.3056 25.4125 29.3044 25.4165 29.3031C25.4198 29.3021 25.4233 29.301 25.4273 29.2997L21.3412 28.6242ZM21.3412 28.6242C21.3459 28.2702 21.6366 27.9801 22.0022 27.9777H22.0022M21.3412 28.6242L22.0022 27.9777M22.0022 27.9777C22.4242 27.9748 22.8462 27.9753 23.2684 27.9758M22.0022 27.9777L23.2684 27.9758M23.2684 27.9758C23.4531 27.976 23.6379 27.9762 23.8227 27.9762L23.2684 27.9758ZM28.2576 27.838C27.518 28.6898 26.5772 29.1631 25.4588 29.2927L23.8227 27.9762C23.9452 27.9762 24.0677 27.9763 24.1903 27.9764C24.46 27.9766 24.7297 27.9769 24.9995 27.9759C26.3384 27.9712 27.4573 27.1362 27.84 25.8548L27.84 25.8548C27.9183 25.5925 27.9587 25.3224 27.9594 25.0488C27.9611 24.4243 27.961 23.7997 27.9609 23.1751C27.9609 22.8005 27.9609 22.4259 27.9612 22.0513C27.9613 21.9066 27.9921 21.7802 28.0545 21.6749C28.1169 21.5698 28.2116 21.484 28.3423 21.4218L28.3423 21.4218C28.5921 21.3027 28.8356 21.3319 29.0545 21.5049C29.2106 21.6283 29.2971 21.7935 29.2973 21.9935C29.2977 22.2977 29.2997 22.6018 29.3017 22.9058C29.3069 23.6862 29.3122 24.466 29.2893 25.2453C29.2606 26.2242 28.9024 27.0953 28.2576 27.838Z" fill="#F2F2F2" stroke="#DEDEDE" stroke-width="0.0533319"/>
<path d="M23.6014 2.70085V2.7004C23.4435 2.70037 23.2856 2.7001 23.1278 2.69983C22.7469 2.69917 22.3661 2.69851 21.9852 2.70129L23.6014 2.70085ZM23.6014 2.70085H23.628M23.6014 2.70085H23.628M23.628 2.70085C23.7854 2.70085 23.9425 2.69899 24.0994 2.69712C24.4421 2.69306 24.784 2.689 25.1254 2.70438L25.1254 2.70438M23.628 2.70085L25.1254 2.70438M25.1254 2.70438C26.6933 2.77445 27.9012 3.47333 28.7149 4.82053C29.1206 5.49251 29.3018 6.23291 29.2991 7.02014C29.2971 7.65523 29.2975 8.29037 29.298 8.92546C29.2982 9.26733 29.2984 9.60918 29.2983 9.95099C29.2982 10.1603 29.2287 10.3367 29.1118 10.4606C28.995 10.5845 28.8294 10.6574 28.6336 10.6576L28.6336 10.6576M25.1254 2.70438L28.6336 10.6576M28.6336 10.6576C28.4363 10.658 28.2687 10.5843 28.1503 10.4591M28.6336 10.6576L28.1503 10.4591M28.1503 10.4591C28.0318 10.3338 27.9612 10.1555 27.961 9.94432M28.1503 10.4591L27.961 9.94432M27.961 9.94432C27.9608 9.62752 27.9615 9.31062 27.9622 8.99367M27.961 9.94432L27.9622 8.99367M27.9622 8.99367C27.9635 8.32621 27.9649 7.65852 27.9582 6.99106M27.9622 8.99367L27.9582 6.99106M27.9582 6.99106C27.9494 6.12895 27.6383 5.38848 26.9964 4.80152M27.9582 6.99106L26.9964 4.80152M26.9964 4.80152C26.5175 4.3637 25.9486 4.12438 25.3048 4.05648M26.9964 4.80152L25.3048 4.05648M25.3048 4.05648C25.0885 4.03364 24.8717 4.03575 24.6566 4.03785C24.5833 4.03856 24.5101 4.03928 24.4372 4.039C24.0042 4.03733 23.5708 4.03751 23.1374 4.0377C22.7638 4.03786 22.3903 4.03803 22.0171 4.037C21.6929 4.03614 21.4409 3.83831 21.3591 3.52958L25.3048 4.05648Z" fill="#F2F2F2" stroke="#DEDEDE" stroke-width="0.0533319"/>
<path d="M11.335 22.369C12.6463 23.589 14.2076 24.1673 15.99 24.1773C15.99 24.1773 15.99 24.1773 15.9901 24.1773L15.9899 24.2039L11.335 22.369ZM11.335 22.369C11.1065 22.1565 11.0392 21.8723 11.1416 21.6101M11.335 22.369L11.1416 21.6101M11.1416 21.6101C11.3201 21.1537 11.8775 21.0164 12.2433 21.3435M11.1416 21.6101L12.2433 21.3435M12.2433 21.3435C12.5902 21.6537 12.9565 21.9379 13.3682 22.1608M12.2433 21.3435L13.3682 22.1608M13.3682 22.1608C13.9808 22.4926 14.6335 22.6904 15.3268 22.7627L13.3682 22.1608ZM18.6833 23.6521L18.6833 23.6521L18.177 22.3742C18.7592 22.1281 19.2687 21.7714 19.7347 21.3487C20.1332 20.9872 20.7566 21.1857 20.8674 21.7055C20.921 21.9573 20.8527 22.1781 20.6621 22.3574C20.0788 22.9059 19.4219 23.3422 18.6833 23.6521Z" fill="#F2F2F2" stroke="#DEDEDE" stroke-width="0.0533319"/>
<path d="M15.9836 15.1511C15.9836 14.3442 15.9827 13.5373 15.984 12.7304C15.9847 12.3741 16.2598 12.0616 16.5984 12.0269C16.978 11.988 17.3083 12.2156 17.3852 12.5766C17.4052 12.6697 17.4106 12.7675 17.4106 12.8633C17.4121 14.4253 17.4123 15.9873 17.4112 17.5492C17.4108 18.0516 17.2976 18.5177 16.956 18.9065C16.6117 19.2982 16.1705 19.4887 15.6579 19.5198C15.4477 19.5327 15.2361 19.5258 15.0251 19.522C14.6684 19.5155 14.3661 19.2186 14.3432 18.8574C14.3201 18.4919 14.589 18.1601 14.9462 18.1087C15.1307 18.0821 15.3156 18.0965 15.5006 18.0938C15.8466 18.0889 15.9809 17.9576 15.9827 17.605C15.9853 17.0129 15.9836 16.4205 15.9836 15.8283C15.9836 15.6027 15.9836 15.3769 15.9836 15.1511Z" fill="#F2F2F2"/>
<path d="M9.90119 13.7001C9.90119 13.3747 9.89653 13.0493 9.90231 12.7241C9.90964 12.3178 10.2286 12.0113 10.62 12.0246C10.9114 12.0344 11.1775 12.2727 11.2404 12.5841C11.2542 12.6525 11.2622 12.7232 11.2624 12.793C11.2642 13.3956 11.2637 13.9982 11.2631 14.6008C11.2628 14.7947 11.2153 14.9749 11.0899 15.1272C10.9254 15.3272 10.7098 15.4099 10.4575 15.3621C10.2053 15.3144 10.0397 15.1521 9.94898 14.914C9.91453 14.8238 9.89964 14.7291 9.90008 14.6317C9.90142 14.3212 9.90053 14.0107 9.90053 13.7001C9.90075 13.7001 9.90097 13.7001 9.90119 13.7001Z" fill="#F2F2F2"/>
<path d="M22.2407 13.7051C22.2407 14.0271 22.2434 14.3492 22.2401 14.6711C22.2359 15.0712 21.9411 15.3728 21.561 15.3713C21.1912 15.3697 20.8955 15.0625 20.8938 14.6693C20.8909 14.0216 20.8909 13.3739 20.8938 12.7261C20.8955 12.3356 21.1952 12.0253 21.5628 12.0242C21.9393 12.0231 22.2361 12.3289 22.2401 12.7279C22.2434 13.0536 22.2407 13.3794 22.2407 13.7051Z" fill="#F2F2F2"/>
</svg>
